<svg width="75" height="76" viewBox="0 0 75 76" fill="none" xmlns="http://www.w3.org/2000/svg">
<path d="M8.03125 60.168C8.01953 62.0312 9.09766 63.9297 10.668 64.6914L9.97656 65.582C8.83398 64.9902 7.94922 63.8125 7.49219 62.4062C7.01758 63.9062 6.09766 65.1602 4.90234 65.7812L4.21094 64.8789C5.82812 64.1055 6.91797 62.0898 6.91797 60.168V58.375H8.03125V60.168ZM12.5664 57.4961V61.6797H14.2539V62.6289H12.5664V67.9961H11.4531V57.4961H12.5664ZM18.6484 59.6875C18.6484 61.0469 19.6562 62.3242 21.2734 62.8398L20.6992 63.707C19.4922 63.3086 18.5781 62.4824 18.1094 61.4336C17.6348 62.5762 16.7031 63.4785 15.4492 63.918L14.875 63.0391C16.5039 62.4883 17.5117 61.1289 17.5234 59.6875V59.2305H15.168V58.3281H20.957V59.2305H18.6484V59.6875ZM23.4648 57.5078V65.1719H22.3516V57.5078H23.4648ZM23.7812 66.8711V67.7734H16.5977V64.4453H17.7227V66.8711H23.7812ZM37.6328 63.8242V64.7383H33.3906V68.0078H32.2891V64.7383H28.0586V63.8242H37.6328ZM36.7188 58.7617V59.6641H33.4023C33.4668 60.8242 35.0488 61.9551 37.0469 62.207L36.6484 63.0977C34.9609 62.8633 33.5254 62.0723 32.8516 61C32.166 62.084 30.7188 62.8633 29.0312 63.0977L28.6211 62.207C30.6191 61.9551 32.2129 60.8477 32.2891 59.6641H28.9609V58.7617H32.2891V57.4961H33.3906V58.7617H36.7188ZM46.6094 57.4961V61.6797H48.2383V62.6055H46.6094V67.9844H45.4961V57.4961H46.6094ZM43.8672 58.5977C43.8555 61.6328 42.5195 64.3398 39.0625 66.0508L38.4414 65.1836C41.0723 63.8711 42.502 61.9727 42.7305 59.5234H38.9688V58.5977H43.8672ZM56.9805 57.4961V61.75H58.668V62.6758H56.9805V67.9961H55.8789V57.4961H56.9805ZM54.9648 59.1367V60.0508H48.7422V59.1367H51.332V57.6367H52.4453V59.1367H54.9648ZM51.8945 60.8242C53.3945 60.8242 54.4961 61.832 54.5078 63.2617C54.4961 64.7031 53.3945 65.6992 51.8945 65.7109C50.3828 65.6992 49.2812 64.7031 49.2812 63.2617C49.2812 61.832 50.3828 60.8242 51.8945 60.8242ZM51.8945 61.7383C51.0039 61.7383 50.3359 62.3594 50.3477 63.2617C50.3359 64.1758 51.0039 64.7852 51.8945 64.7734C52.7852 64.7852 53.4414 64.1758 53.4414 63.2617C53.4414 62.3594 52.7852 61.7383 51.8945 61.7383ZM67.9023 57.4961V67.9961H66.7773V57.4961H67.9023ZM64.7734 58.6211C64.7734 61.6914 63.4609 64.3633 59.8633 66.0859L59.2773 65.1836C62.0723 63.8535 63.4316 61.9609 63.6484 59.5117H59.7812V58.6211H64.7734Z" fill="#8E8E8E"/>
<circle cx="37" cy="27" r="20.25" stroke="#8E8E8E" stroke-width="1.5" stroke-dasharray="3 3"/>
<path d="M37 20V34" stroke="#8E8E8E" stroke-width="1.5" stroke-linecap="round" stroke-linejoin="round"/>
<path d="M30 27H44" stroke="#8E8E8E" stroke-width="1.5" stroke-linecap="round" stroke-linejoin="round"/>
</svg>
