<svg width="54" height="54" viewBox="0 0 54 54" fill="none" xmlns="http://www.w3.org/2000/svg">
<g filter="url(#filter0_d_926_1649)">
<circle cx="26.6258" cy="27.4754" r="22.575" fill="white"/>
</g>
<g clip-path="url(#clip0_926_1649)">
<path d="M37.4216 34.3469C37.4216 34.8676 37.2148 35.3669 36.8466 35.735C36.4785 36.1031 35.9792 36.31 35.4586 36.31H17.7912C17.2705 36.31 16.7712 36.1031 16.4031 35.735C16.0349 35.3669 15.8281 34.8676 15.8281 34.3469V23.5502C15.8281 23.0296 16.0349 22.5302 16.4031 22.1621C16.7712 21.794 17.2705 21.5871 17.7912 21.5871H21.7173L23.6803 18.6426H29.5694L31.5325 21.5871H35.4586C35.9792 21.5871 36.4785 21.794 36.8466 22.1621C37.2148 22.5302 37.4216 23.0296 37.4216 23.5502V34.3469Z" fill="#333333" stroke="#333333" stroke-width="1.96304" stroke-linecap="round" stroke-linejoin="round"/>
<path d="M26.6253 32.3815C28.7936 32.3815 30.5514 30.6237 30.5514 28.4554C30.5514 26.2871 28.7936 24.5293 26.6253 24.5293C24.457 24.5293 22.6992 26.2871 22.6992 28.4554C22.6992 30.6237 24.457 32.3815 26.6253 32.3815Z" fill="white" stroke="white" stroke-width="1.96304" stroke-linecap="round" stroke-linejoin="round"/>
</g>
<defs>
<filter id="filter0_d_926_1649" x="0.124694" y="0.974304" width="53.0026" height="53.0026" filterUnits="userSpaceOnUse" color-interpolation-filters="sRGB">
<feFlood flood-opacity="0" result="BackgroundImageFix"/>
<feColorMatrix in="SourceAlpha" type="matrix" values="0 0 0 0 0 0 0 0 0 0 0 0 0 0 0 0 0 0 127 0" result="hardAlpha"/>
<feOffset/>
<feGaussianBlur stdDeviation="1.96304"/>
<feComposite in2="hardAlpha" operator="out"/>
<feColorMatrix type="matrix" values="0 0 0 0 0 0 0 0 0 0 0 0 0 0 0 0 0 0 0.25 0"/>
<feBlend mode="normal" in2="BackgroundImageFix" result="effect1_dropShadow_926_1649"/>
<feBlend mode="normal" in="SourceGraphic" in2="effect1_dropShadow_926_1649" result="shape"/>
</filter>
<clipPath id="clip0_926_1649">
<rect width="23.5565" height="23.5565" fill="white" transform="translate(14.8477 15.6973)"/>
</clipPath>
</defs>
</svg>
