<svg width="6" height="10" viewBox="0 0 6 10" fill="none" xmlns="http://www.w3.org/2000/svg">
<g id="Group 1948755325">
<g id="Group 1948755326">
<path id="Vector 2410 (Stroke)" fill-rule="evenodd" clip-rule="evenodd" d="M4.90253 0.109582C5.06578 0.119947 5.20864 0.128652 5.34779 0.128652C5.70797 0.128653 5.99996 0.420641 5.99996 0.780828C5.99996 1.14101 5.70797 1.433 5.34779 1.433C5.16151 1.433 4.97891 1.42141 4.82155 1.41142L4.81988 1.41131C4.65464 1.40082 4.51821 1.39224 4.3899 1.39224C4.13168 1.39224 4.00153 1.42954 3.91607 1.48651C3.83963 1.53747 3.70493 1.66774 3.58936 2.06398C3.47158 2.46779 3.39126 3.09056 3.39126 4.0417V9.25913C3.39126 9.61932 3.09927 9.91131 2.73909 9.91131C2.3789 9.91131 2.08691 9.61932 2.08691 9.25913V4.0417C2.08691 3.03632 2.16963 2.27322 2.33718 1.69876C2.50694 1.11674 2.77985 0.676354 3.19254 0.401227C3.59622 0.132113 4.03671 0.0878904 4.38991 0.0878906C4.56136 0.0878907 4.73474 0.0989147 4.88678 0.108581C4.89206 0.108917 4.89731 0.10925 4.90253 0.109582Z" fill="#FBFBFB"/>
<path id="Vector 2411 (Stroke)" fill-rule="evenodd" clip-rule="evenodd" d="M0 4.04182C0 3.68164 0.291989 3.38965 0.652175 3.38965H4.56522C4.92541 3.38965 5.2174 3.68164 5.2174 4.04182C5.2174 4.40201 4.92541 4.694 4.56522 4.694H0.652175C0.291989 4.694 0 4.40201 0 4.04182Z" fill="#FBFBFB"/>
</g>
</g>
</svg>
