<svg width="52" height="52" viewBox="0 0 52 52" fill="none" xmlns="http://www.w3.org/2000/svg">
<g id="circum:image-on">
<path id="Vector" d="M39.9423 6.63281H12.0573C10.6207 6.63281 9.24295 7.2035 8.22713 8.21932C7.21131 9.23514 6.64063 10.6129 6.64062 12.0495V39.9562C6.64463 41.3915 7.21659 42.7669 8.23155 43.7819C9.24651 44.7968 10.6219 45.3688 12.0573 45.3728H39.9423C41.3776 45.3688 42.7531 44.7968 43.768 43.7819C44.783 42.7669 45.355 41.3915 45.359 39.9562V12.0495C45.359 11.3382 45.2188 10.6338 44.9466 9.97661C44.6744 9.31943 44.2754 8.7223 43.7724 8.21932C43.2695 7.71633 42.6723 7.31734 42.0152 7.04513C41.358 6.77292 40.6536 6.63281 39.9423 6.63281ZM8.80729 12.0495C8.80729 11.1875 9.1497 10.3609 9.75919 9.75138C10.3687 9.14189 11.1953 8.79948 12.0573 8.79948H39.9423C40.8042 8.79948 41.6309 9.14189 42.2404 9.75138C42.8499 10.3609 43.1923 11.1875 43.1923 12.0495V30.8128L34.7856 22.4061C34.1735 21.8028 33.3485 21.4645 32.489 21.4645C31.6294 21.4645 30.8044 21.8028 30.1923 22.4061L20.3123 32.3078C20.1054 32.5062 19.8298 32.6169 19.5431 32.6169C19.2565 32.6169 18.9809 32.5062 18.774 32.3078L17.5606 31.0945C16.9458 30.4962 16.1218 30.1615 15.264 30.1615C14.4061 30.1615 13.5821 30.4962 12.9673 31.0945L8.80729 35.2545V12.0495ZM43.1923 39.9562C43.1923 40.8181 42.8499 41.6448 42.2404 42.2542C41.6309 42.8637 40.8042 43.2062 39.9423 43.2062H12.0573C11.1953 43.2062 10.3687 42.8637 9.75919 42.2542C9.1497 41.6448 8.80729 40.8181 8.80729 39.9562V38.3312L14.5165 32.6328C14.72 32.4366 14.9921 32.3278 15.2748 32.3295C15.5641 32.3267 15.8434 32.4353 16.0548 32.6328L17.2465 33.8461C17.8586 34.4495 18.6836 34.7878 19.5431 34.7878C20.4026 34.7878 21.2276 34.4495 21.8398 33.8461L31.7415 23.9445C31.8422 23.8429 31.962 23.7623 32.094 23.7073C32.226 23.6523 32.3676 23.624 32.5106 23.624C32.6536 23.624 32.7952 23.6523 32.9272 23.7073C33.0593 23.7623 33.1791 23.8429 33.2798 23.9445L43.2031 33.8678L43.1923 39.9562Z" fill="#8E8E8E"/>
<path id="Vector_2" d="M17.4675 22.888C16.3961 22.888 15.3489 22.5703 14.4581 21.9752C13.5673 21.38 12.8731 20.534 12.4631 19.5442C12.0531 18.5545 11.9459 17.4653 12.1549 16.4146C12.3639 15.3639 12.8798 14.3987 13.6373 13.6412C14.3948 12.8837 15.36 12.3678 16.4107 12.1588C17.4614 11.9498 18.5506 12.057 19.5403 12.467C20.5301 12.877 21.3761 13.5713 21.9712 14.462C22.5664 15.3528 22.8841 16.4 22.8841 17.4714C22.8841 18.9079 22.3134 20.2857 21.2976 21.3015C20.2818 22.3173 18.904 22.888 17.4675 22.888ZM17.4675 14.2214C16.8247 14.2214 16.1963 14.412 15.6618 14.7691C15.1274 15.1262 14.7108 15.6338 14.4648 16.2276C14.2189 16.8215 14.1545 17.475 14.2799 18.1054C14.4053 18.7358 14.7148 19.3149 15.1694 19.7695C15.6239 20.224 16.203 20.5335 16.8334 20.6589C17.4638 20.7843 18.1173 20.7199 18.7112 20.474C19.305 20.228 19.8126 19.8114 20.1697 19.277C20.5268 18.7425 20.7175 18.1141 20.7175 17.4714C20.7175 16.6094 20.375 15.7828 19.7655 15.1733C19.1561 14.5638 18.3294 14.2214 17.4675 14.2214Z" fill="#8E8E8E"/>
</g>
</svg>
