<svg width="15" height="15" viewBox="0 0 15 15" fill="none" xmlns="http://www.w3.org/2000/svg">
<path d="M8.9548 5.6403V2.9887C8.9548 2.46126 8.74527 1.95543 8.37232 1.58248C7.99937 1.20952 7.49353 1 6.9661 1L4.3145 6.9661V14.258H11.792C12.1117 14.2616 12.422 14.1495 12.6656 13.9425C12.9093 13.7354 13.0699 13.4472 13.1178 13.1311L14.0326 7.16497C14.0615 6.97495 14.0486 6.78094 13.995 6.59637C13.9415 6.4118 13.8484 6.24108 13.7223 6.09605C13.5962 5.95102 13.44 5.83515 13.2647 5.75645C13.0893 5.67775 12.899 5.63812 12.7068 5.6403H8.9548ZM4.3145 14.258H2.3258C1.97418 14.258 1.63695 14.1183 1.38832 13.8697C1.13968 13.621 1 13.2838 1 12.9322V8.2919C1 7.94027 1.13968 7.60305 1.38832 7.35442C1.63695 7.10578 1.97418 6.9661 2.3258 6.9661H4.3145" fill="#D9D9D9"/>
<path d="M4.3145 6.9661L6.9661 1C7.49353 1 7.99937 1.20952 8.37232 1.58248C8.74527 1.95543 8.9548 2.46126 8.9548 2.9887V5.6403H12.7068C12.899 5.63812 13.0893 5.67775 13.2647 5.75645C13.44 5.83515 13.5962 5.95102 13.7223 6.09605C13.8484 6.24108 13.9415 6.41179 13.995 6.59637C14.0486 6.78094 14.0614 6.97495 14.0326 7.16497L13.1178 13.1311C13.0699 13.4472 12.9093 13.7354 12.6656 13.9425C12.422 14.1495 12.1117 14.2616 11.792 14.258H4.3145M4.3145 6.9661V14.258M4.3145 6.9661H2.3258C1.97418 6.9661 1.63695 7.10578 1.38832 7.35442C1.13968 7.60305 1 7.94027 1 8.2919V12.9322C1 13.2838 1.13968 13.621 1.38832 13.8697C1.63695 14.1183 1.97418 14.258 2.3258 14.258H4.3145" stroke="white" stroke-width="0.6" stroke-linecap="round" stroke-linejoin="round"/>
</svg>
