<svg width="22" height="23" viewBox="0 0 22 23" fill="none" xmlns="http://www.w3.org/2000/svg">
<g id="more-vertical">
<path id="Vector" d="M11.0026 12.4193C11.5089 12.4193 11.9193 12.0089 11.9193 11.5026C11.9193 10.9963 11.5089 10.5859 11.0026 10.5859C10.4963 10.5859 10.0859 10.9963 10.0859 11.5026C10.0859 12.0089 10.4963 12.4193 11.0026 12.4193Z" stroke="#8E8E8E" stroke-width="1.83333" stroke-linecap="round" stroke-linejoin="round"/>
<path id="Vector_2" d="M11.0026 5.9974C11.5089 5.9974 11.9193 5.58699 11.9193 5.08073C11.9193 4.57447 11.5089 4.16406 11.0026 4.16406C10.4963 4.16406 10.0859 4.57447 10.0859 5.08073C10.0859 5.58699 10.4963 5.9974 11.0026 5.9974Z" stroke="#8E8E8E" stroke-width="1.83333" stroke-linecap="round" stroke-linejoin="round"/>
<path id="Vector_3" d="M11.0026 18.8333C11.5089 18.8333 11.9193 18.4229 11.9193 17.9167C11.9193 17.4104 11.5089 17 11.0026 17C10.4963 17 10.0859 17.4104 10.0859 17.9167C10.0859 18.4229 10.4963 18.8333 11.0026 18.8333Z" stroke="#8E8E8E" stroke-width="1.83333" stroke-linecap="round" stroke-linejoin="round"/>
</g>
</svg>
