<svg width="32" height="32" viewBox="0 0 32 32" fill="none" xmlns="http://www.w3.org/2000/svg">
<g id="Group 1948755355">
<circle id="Ellipse 15635" cx="16" cy="16" r="16" fill="#00A05E"/>
<path id="N" d="M12.632 22.68C12.0987 22.68 11.6933 22.5147 11.416 22.184C11.1387 21.8533 11 21.4107 11 20.856V13.352C11 12.7973 11.1013 12.3493 11.304 12.008C11.5173 11.656 11.7893 11.4 12.12 11.24C12.4613 11.08 12.8293 11 13.224 11C13.8107 11 14.3067 11.1547 14.712 11.464C15.1173 11.7733 15.432 12.3173 15.656 13.096L17.384 19H17.64V12.856C17.64 12.2907 17.784 11.848 18.072 11.528C18.36 11.1973 18.7707 11.032 19.304 11.032C19.8587 11.032 20.2693 11.1973 20.536 11.528C20.8133 11.848 20.952 12.2907 20.952 12.856V20.088C20.952 20.984 20.7547 21.6453 20.36 22.072C19.9653 22.4987 19.4107 22.712 18.696 22.712C17.9707 22.712 17.4053 22.52 17 22.136C16.5947 21.752 16.2853 21.1867 16.072 20.44L14.936 16.552C14.9147 16.4453 14.872 16.3493 14.808 16.264C14.7547 16.168 14.68 16.12 14.584 16.12C14.4667 16.12 14.3867 16.168 14.344 16.264C14.3013 16.3493 14.28 16.4453 14.28 16.552V20.856C14.28 21.4107 14.1413 21.8533 13.864 22.184C13.5867 22.5147 13.176 22.68 12.632 22.68Z" fill="white"/>
</g>
</svg>
