<svg width="50" height="50" viewBox="0 0 50 50" fill="none" xmlns="http://www.w3.org/2000/svg">
<circle cx="25" cy="25" r="25" fill="#C5C5C5"/>
<path d="M16.0146 27.7989C15.5405 27.7967 15.0706 27.8883 14.632 28.0682C14.1934 28.2482 13.7946 28.513 13.4586 28.8475C13.1226 29.182 12.8559 29.5796 12.674 30.0175C12.4921 30.4553 12.3984 30.9247 12.3984 31.3989C12.3984 34.4427 13.8978 36.7377 16.2414 38.2335C18.549 39.7041 21.6594 40.3989 24.9984 40.3989C28.3374 40.3989 31.4478 39.7041 33.7554 38.2335C36.099 36.7395 37.5984 34.4409 37.5984 31.3989C37.5984 30.4441 37.2192 29.5284 36.544 28.8533C35.8689 28.1781 34.9532 27.7989 33.9984 27.7989H16.0146Z" fill="white"/>
<path d="M16.0146 27.7989C15.5405 27.7967 15.0706 27.8883 14.632 28.0682C14.1934 28.2482 13.7946 28.513 13.4586 28.8475C13.1226 29.182 12.8559 29.5796 12.674 30.0175C12.4921 30.4553 12.3984 30.9247 12.3984 31.3989C12.3984 34.4427 13.8978 36.7377 16.2414 38.2335C18.549 39.7041 21.6594 40.3989 24.9984 40.3989C28.3374 40.3989 31.4478 39.7041 33.7554 38.2335C36.099 36.7395 37.5984 34.4409 37.5984 31.3989C37.5984 30.4441 37.2192 29.5284 36.544 28.8533C35.8689 28.1781 34.9532 27.7989 33.9984 27.7989H16.0146Z" fill="url(#paint0_linear_1343_2222)"/>
<path d="M24.9988 11.5996C23.0893 11.5996 21.2579 12.3582 19.9077 13.7084C18.5574 15.0587 17.7988 16.8901 17.7988 18.7996C17.7988 20.7092 18.5574 22.5405 19.9077 23.8908C21.2579 25.241 23.0893 25.9996 24.9988 25.9996C26.9084 25.9996 28.7397 25.241 30.09 23.8908C31.4403 22.5405 32.1988 20.7092 32.1988 18.7996C32.1988 16.8901 31.4403 15.0587 30.09 13.7084C28.7397 12.3582 26.9084 11.5996 24.9988 11.5996Z" fill="white"/>
<path d="M24.9988 11.5996C23.0893 11.5996 21.2579 12.3582 19.9077 13.7084C18.5574 15.0587 17.7988 16.8901 17.7988 18.7996C17.7988 20.7092 18.5574 22.5405 19.9077 23.8908C21.2579 25.241 23.0893 25.9996 24.9988 25.9996C26.9084 25.9996 28.7397 25.241 30.09 23.8908C31.4403 22.5405 32.1988 20.7092 32.1988 18.7996C32.1988 16.8901 31.4403 15.0587 30.09 13.7084C28.7397 12.3582 26.9084 11.5996 24.9988 11.5996Z" fill="url(#paint1_linear_1343_2222)"/>
<defs>
<linearGradient id="paint0_linear_1343_2222" x1="24.9984" y1="26.2995" x2="30.699" y2="47.5989" gradientUnits="userSpaceOnUse">
<stop stop-color="#5E7BDB" stop-opacity="0"/>
<stop offset="1" stop-color="#F8F362" stop-opacity="0.44"/>
</linearGradient>
<linearGradient id="paint1_linear_1343_2222" x1="24.9988" y1="9.88606" x2="35.8523" y2="30.1622" gradientUnits="userSpaceOnUse">
<stop stop-color="#5E7BDB" stop-opacity="0"/>
<stop offset="1" stop-color="#F8F362" stop-opacity="0.44"/>
</linearGradient>
</defs>
</svg>
