<svg width="32" height="32" viewBox="0 0 32 32" fill="none" xmlns="http://www.w3.org/2000/svg">
<g id="ICon">
<path id="Vector" d="M6.83013 20.5676C6.83013 22.0683 6.84792 23.5037 6.83013 24.9392C6.8064 26.3627 5.65567 27.2821 4.36258 26.9322C3.51436 26.7008 2.96273 25.9891 2.95086 25.04C2.93307 23.6283 2.93307 22.2106 2.95086 20.7989C2.95086 20.4312 2.83816 20.2295 2.52379 20.0337C1.55694 19.4168 1.02903 18.5212 1.01123 17.3586C0.999368 16.4688 0.993436 15.5791 1.01123 14.6894C1.05275 12.8565 2.36957 11.5516 4.20243 11.4863C5.75651 11.4329 7.32245 11.4744 8.85873 11.2668C11.528 10.9109 13.7879 9.65937 15.6741 7.74347C16.297 7.10879 16.8783 6.43258 17.4773 5.78011C18.1654 5.03273 18.9069 4.82512 19.761 5.14543C20.6033 5.46573 21.0541 6.14787 21.0541 7.13251C21.0541 13.0522 21.0541 18.9779 21.0541 24.8976C21.0541 25.8526 20.6152 26.511 19.7907 26.8373C18.9484 27.1694 18.1713 26.9678 17.5011 26.2441C16.7418 25.4315 16.03 24.5714 15.2174 23.8181C12.9634 21.7302 10.2705 20.6743 7.20975 20.5379C7.11484 20.5379 7.01401 20.5498 6.84199 20.5616L6.83013 20.5676ZM7.49447 19.2567C10.5552 19.4702 13.254 20.4608 15.5318 22.4123C16.5402 23.2724 17.4062 24.3045 18.3256 25.2654C18.5984 25.5501 18.8535 25.8467 19.3043 25.651C19.7195 25.473 19.7313 25.1171 19.7313 24.7375C19.7313 22.8394 19.7313 20.9413 19.7313 19.0432C19.7313 15.1046 19.7373 11.166 19.7136 7.22742C19.7136 6.9427 19.5059 6.51563 19.2805 6.42665C19.0611 6.33768 18.634 6.51563 18.4205 6.71137C17.9281 7.15624 17.5129 7.68415 17.0681 8.1824C15.2174 10.2288 12.9693 11.6346 10.3001 12.3286C9.39258 12.5659 8.44945 12.6786 7.49447 12.8506V19.2686V19.2567ZM6.13613 12.7853C5.40061 12.7853 4.73034 12.7379 4.07787 12.7972C3.04577 12.8862 2.34584 13.6335 2.29839 14.6894C2.2628 15.5791 2.2628 16.4688 2.29839 17.3527C2.33398 18.1949 2.74919 18.8949 3.56775 19.0906C4.38631 19.2864 5.26419 19.2389 6.13613 19.2982V12.7853ZM4.23209 20.5616C4.23209 22.1039 4.22616 23.569 4.23209 25.04C4.23209 25.4315 4.46935 25.6984 4.87863 25.6925C5.31164 25.6806 5.51924 25.4078 5.51924 24.9748C5.51924 24.3282 5.51924 23.6817 5.51924 23.0411C5.51924 22.2225 5.51924 21.4039 5.51924 20.5616H4.22616H4.23209Z" fill="black"/>
<path id="Vector_2" d="M26.8135 16.6414C26.2085 16.6414 25.6035 16.6414 24.9925 16.6414C24.5595 16.6414 24.2926 16.4279 24.3104 15.9771C24.3223 15.556 24.5951 15.3721 24.9925 15.3721C26.2441 15.3721 27.5016 15.3721 28.7532 15.3721C29.1862 15.3721 29.4531 15.5856 29.4353 16.0364C29.4234 16.4576 29.1506 16.6355 28.7532 16.6414C28.1066 16.6414 27.4601 16.6414 26.8135 16.6414Z" fill="black"/>
<path id="Vector_3" d="M26.9678 8.85301C26.8135 9.09621 26.7305 9.28602 26.5941 9.42245C26.0187 10.0156 25.4255 10.5969 24.8442 11.1841C24.5299 11.4985 24.1799 11.6112 23.8359 11.2731C23.4918 10.9291 23.6105 10.5791 23.9248 10.2707C24.5239 9.67157 25.1112 9.05469 25.7399 8.48525C25.9001 8.3429 26.2322 8.25985 26.4339 8.31917C26.6356 8.37849 26.7779 8.65134 26.9678 8.85301Z" fill="black"/>
<path id="Vector_4" d="M24.2394 20.4619C24.4766 20.5983 24.6724 20.6695 24.8088 20.8059C25.4198 21.3932 26.0129 21.9982 26.612 22.5973C26.9145 22.8998 26.9916 23.226 26.6713 23.5523C26.357 23.8726 26.0248 23.837 25.7164 23.5285C25.0995 22.9176 24.4648 22.3185 23.8894 21.6779C23.7352 21.5059 23.6818 21.1618 23.7352 20.9246C23.7767 20.7466 24.0555 20.6221 24.2394 20.4619Z" fill="black"/>
</g>
</svg>
