<svg width="24" height="24" viewBox="0 0 24 24" fill="none" xmlns="http://www.w3.org/2000/svg">
<g id="thumbs-up">
<path id="Vector" d="M7 10L11 1C11.7956 1 12.5587 1.31607 13.1213 1.87868C13.6839 2.44129 14 3.20435 14 4V8H19.66C19.9499 7.99672 20.2371 8.0565 20.5016 8.17522C20.7661 8.29393 21.0016 8.46873 21.1919 8.68751C21.3821 8.90629 21.5225 9.16382 21.6033 9.44225C21.6842 9.72068 21.7035 10.0134 21.66 10.3L20.28 19.3C20.2077 19.7769 19.9654 20.2116 19.5979 20.524C19.2304 20.8364 18.7623 21.0055 18.28 21H7M7 10V21M7 10H4C3.46957 10 2.96086 10.2107 2.58579 10.5858C2.21071 10.9609 2 11.4696 2 12V19C2 19.5304 2.21071 20.0391 2.58579 20.4142C2.96086 20.7893 3.46957 21 4 21H7" stroke="#8E8E8E" stroke-width="2" stroke-linecap="round" stroke-linejoin="round"/>
</g>
</svg>
