<svg width="23" height="22" viewBox="0 0 23 22" fill="none" xmlns="http://www.w3.org/2000/svg">
<ellipse cx="11.961" cy="11" rx="10.9776" ry="11" fill="white"/>
<path fill-rule="evenodd" clip-rule="evenodd" d="M8.66667 6.83333C8.66667 5.94928 9.01786 5.10143 9.64298 4.47631C10.2681 3.85119 11.1159 3.5 12 3.5C12.8841 3.5 13.7319 3.85119 14.357 4.47631C14.9821 5.10143 15.3333 5.94928 15.3333 6.83333C15.3333 7.71739 14.9821 8.56523 14.357 9.19036C13.7319 9.81548 12.8841 10.1667 12 10.1667C11.1159 10.1667 10.2681 9.81548 9.64298 9.19036C9.01786 8.56523 8.66667 7.71739 8.66667 6.83333ZM8.66667 11.8333C7.5616 11.8333 6.50179 12.2723 5.72039 13.0537C4.93899 13.8351 4.5 14.8949 4.5 16C4.5 16.663 4.76339 17.2989 5.23223 17.7678C5.70107 18.2366 6.33696 18.5 7 18.5H17C17.663 18.5 18.2989 18.2366 18.7678 17.7678C19.2366 17.2989 19.5 16.663 19.5 16C19.5 14.8949 19.061 13.8351 18.2796 13.0537C17.4982 12.2723 16.4384 11.8333 15.3333 11.8333H8.66667Z" fill="#A7A7A7"/>
</svg>
