<svg width="16" height="15" viewBox="0 0 16 15" fill="none" xmlns="http://www.w3.org/2000/svg">
<path d="M7.21911 0.561178C7.54092 -0.0822015 8.45908 -0.0822033 8.78089 0.561176L10.4635 3.92507C10.5906 4.17914 10.8333 4.3555 11.1142 4.39785L14.8334 4.9586C15.5448 5.06585 15.8285 5.93907 15.3161 6.44395L12.6368 9.08371C12.4344 9.28308 12.3417 9.56844 12.3882 9.84868L13.0042 13.5591C13.122 14.2688 12.3792 14.8085 11.7407 14.4771L8.40217 12.7447C8.15002 12.6138 7.84998 12.6138 7.59783 12.7447L4.25933 14.4771C3.6208 14.8085 2.878 14.2688 2.99581 13.5591L3.6118 9.84868C3.65833 9.56844 3.56561 9.28308 3.36325 9.08371L0.68395 6.44395C0.171507 5.93907 0.455231 5.06585 1.16657 4.9586L4.88578 4.39785C5.16668 4.3555 5.40942 4.17914 5.5365 3.92507L7.21911 0.561178Z" fill="#FFD857"/>
</svg>
